<svg width="468" height="534" viewBox="0 0 468 534" fill="none" xmlns="http://www.w3.org/2000/svg">
<path fill-rule="evenodd" clip-rule="evenodd" d="M234 0.333374C252.41 0.333374 267.333 15.2574 267.333 33.6667V419.86L410.43 276.763C423.447 263.747 444.553 263.747 457.57 276.763C470.587 289.78 470.587 310.887 457.57 323.903L257.57 523.903C251.32 530.153 242.84 533.667 234 533.667C225.16 533.667 216.68 530.153 210.43 523.903L10.4296 323.903C-2.58771 310.887 -2.58771 289.78 10.4296 276.763C23.4473 263.747 44.5526 263.747 57.5703 276.763L200.667 419.86V33.6667C200.667 15.2574 215.59 0.333374 234 0.333374Z" fill="#BBC6DC"/>
</svg>
